<?xml version="1.0" encoding="UTF-8" standalone="no"?>
<!DOCTYPE svg PUBLIC "-//W3C//DTD SVG 1.1//EN" "http://www.w3.org/Graphics/SVG/1.1/DTD/svg11.dtd">
<svg width="100%" height="100%" viewBox="0 0 2953 2953" version="1.1" xmlns="http://www.w3.org/2000/svg" xmlns:xlink="http://www.w3.org/1999/xlink" xml:space="preserve" xmlns:serif="http://www.serif.com/" style="fill-rule:evenodd;clip-rule:evenodd;stroke-linecap:round;stroke-linejoin:round;stroke-miterlimit:1.5;">
    <circle cx="1476.5" cy="1476.5" r="1476.5" style="fill:rgb(37,37,37);stroke:rgb(35,31,32);stroke-opacity:0;stroke-width:50px;"/>
    <path d="M812.604,2129.474L812.604,1258.77C812.54,1257.648 812.508,1256.517 812.508,1255.378L812.508,975.666C812.508,943.287 838.795,917 871.174,917L871.27,917L999.911,917L942.672,898.386C932.435,895.057 926.826,884.043 930.155,873.805L1048.607,509.562C1051.936,499.324 1062.95,493.716 1073.188,497.045L1191,535.358L1191,462.728C1191,451.288 1200.288,442 1211.728,442L1303.272,442C1314.712,442 1324,451.288 1324,462.728L1324,917L1360,917L1360,342.368C1360,316.377 1381.101,295.276 1407.092,295.276L1545.908,295.276C1571.899,295.276 1593,316.377 1593,342.368L1593,917L1630,917L1630,462.728C1630,451.288 1639.288,442 1650.728,442L1742.272,442C1753.712,442 1763,451.288 1763,462.728L1763,536.521L1884.389,497.045C1894.626,493.716 1905.64,499.324 1908.969,509.562L2027.421,873.805C2030.75,884.043 2025.142,895.057 2014.905,898.386L1957.665,917L2082.378,917C2114.757,917 2141.044,943.287 2141.044,975.666L2141.044,1559.805C2131.997,1564.937 2122.81,1569.939 2113.472,1574.88C2031.196,1618.415 1922.823,1645.591 1868.32,1665.26L1831.119,1665.26C1825.387,1665.26 1820.734,1669.914 1820.734,1675.646L1820.734,1682.276C1791.919,1692.307 1771.542,1699.111 1744,1710.755L1744,1446.972L1743.145,1446.972C1728.427,1312.992 1614.741,1208.61 1476.867,1208.61C1338.993,1208.61 1225.307,1312.992 1210.589,1446.972L1209.649,1446.972L1209.649,1979.545C1182.345,1991.076 1151.155,2003.075 1121.072,2014.13L914.474,2014.13C908.742,2014.13 904.089,2018.784 904.089,2024.515L904.089,2086.17C865.194,2100.255 837.353,2113.749 812.604,2129.474ZM2141.044,1719.533L2141.044,2185.744C2140.077,2187.051 2139.06,2188.358 2137.993,2189.662C2133.004,2195.764 2110.22,2222.544 2052.895,2239.313C2051.834,2239.624 2050.75,2239.932 2049.645,2240.237L2049.645,2024.515C2049.645,2018.784 2044.991,2014.13 2039.26,2014.13L1831.119,2014.13C1825.387,2014.13 1820.734,2018.784 1820.734,2024.515L1820.734,2244.923C1793.367,2240.087 1767.436,2234.104 1744,2227.962L1744,1865.628C1746.62,1864.34 1747.939,1863.735 1749.816,1862.95C1773.975,1852.842 1773.531,1852.066 1797.567,1841.655C1809.017,1836.695 1815.199,1834.455 1820.734,1832.593L1820.734,1927.564C1820.734,1933.295 1825.387,1937.949 1831.119,1937.949L2039.26,1937.949C2044.991,1937.949 2049.645,1933.295 2049.645,1927.564L2049.645,1754.386C2082.474,1743.22 2114.902,1731.377 2141.044,1719.533ZM2141.044,2358.19L2141.044,2597.956C2141.044,2630.335 2114.757,2656.622 2082.378,2656.622L1802.666,2656.622C1770.287,2656.622 1744,2630.335 1744,2597.956L1744,2373.779C1762.981,2377.198 1765.035,2379.659 1788.647,2383.531C1795.184,2384.603 1806.205,2386.536 1820.734,2388.601L1820.734,2556.493C1820.734,2561.568 1824.854,2565.689 1829.929,2565.689L2040.449,2565.689C2045.525,2565.689 2049.645,2561.568 2049.645,2556.493L2049.645,2386.137C2080.289,2380.138 2111.225,2371.173 2141.044,2358.19ZM1209.649,2220.64L1209.649,2597.956C1209.649,2630.335 1183.361,2656.622 1150.983,2656.622L871.27,2656.622C838.892,2656.622 812.604,2630.335 812.604,2597.956L812.604,2326.592C817.806,2316.914 823.769,2308.094 830.169,2300.373C852.073,2273.947 877.429,2254.564 904.089,2240.425L904.089,2276.434C904.089,2282.165 908.742,2286.819 914.474,2286.819L1122.615,2286.819C1128.346,2286.819 1133,2282.165 1133,2276.434L1133,2207.014C1133.116,2207.022 1133.231,2207.03 1133.345,2207.039C1146.003,2207.959 1185.795,2213.336 1209.649,2220.64ZM1053.384,1211.972C963.843,1310.829 908.401,1441.135 905.699,1584.247C907.541,1587.15 910.784,1589.079 914.474,1589.079L1122.615,1589.079C1128.346,1589.079 1133,1584.426 1133,1578.694L1133,1446.972L1134.253,1446.972C1137.917,1403.963 1149.513,1363.201 1167.569,1326.157L1053.384,1211.972ZM1786.242,1326.316C1804.254,1363.317 1815.822,1404.024 1819.481,1446.972L1820.734,1446.972L1820.734,1578.694C1820.734,1584.426 1825.387,1589.079 1831.119,1589.079L2039.26,1589.079C2042.895,1589.079 2046.097,1587.207 2047.952,1584.375C2045.283,1441.294 1989.895,1311.006 1900.417,1212.14L1786.242,1326.316ZM1414.5,470.311L1414.5,797.689C1414.5,804.208 1419.792,809.5 1426.311,809.5L1526.689,809.5C1533.208,809.5 1538.5,804.208 1538.5,797.689L1538.5,470.311C1538.5,463.792 1533.208,458.5 1526.689,458.5L1426.311,458.5C1419.792,458.5 1414.5,463.792 1414.5,470.311ZM1995.675,1008.485L1788.242,1008.485C1832.447,1032.015 1873.686,1060.396 1911.245,1092.914L1995.675,1008.485ZM1538.5,362.811C1538.5,356.292 1533.208,351 1526.689,351L1426.311,351C1419.792,351 1414.5,356.292 1414.5,362.811L1414.5,390.189C1414.5,396.708 1419.792,402 1426.311,402L1526.689,402C1533.208,402 1538.5,396.708 1538.5,390.189L1538.5,362.811ZM1209.793,1259.984C1265.254,1191.677 1346.371,1145.025 1438.409,1134.764L1438.409,1025.265C1313.126,1033.6 1198.839,1082.405 1108.518,1158.708L1209.793,1259.984ZM1133,1675.646C1133,1669.914 1128.346,1665.26 1122.615,1665.26L914.474,1665.26C908.742,1665.26 904.089,1669.914 904.089,1675.646L904.089,1927.564C904.089,1933.295 908.742,1937.949 914.474,1937.949L1122.615,1937.949C1128.346,1937.949 1133,1933.295 1133,1927.564L1133,1675.646ZM1966.229,1146.328C1997.809,1180.735 2025.812,1218.477 2049.645,1258.962L2049.645,1062.912L1966.229,1146.328ZM1191,917L1191,629.369L1097.463,917L1191,917ZM1042.575,1092.766C1080.089,1060.309 1121.269,1031.979 1165.407,1008.485L958.294,1008.485L1042.575,1092.766ZM904.089,1062.677L904.089,1258.818C927.942,1218.322 955.968,1180.572 987.573,1146.161L904.089,1062.677ZM1414.5,905.189C1414.5,911.708 1419.792,917 1426.311,917L1526.689,917C1533.208,917 1538.5,911.708 1538.5,905.189L1538.5,877.811C1538.5,871.292 1533.208,866 1526.689,866L1426.311,866C1419.792,866 1414.5,871.292 1414.5,877.811L1414.5,905.189ZM1845.305,1158.855C1754.957,1082.467 1640.603,1033.606 1515.239,1025.265L1515.239,1134.754C1607.371,1145.003 1688.566,1191.715 1744.046,1260.114L1845.305,1158.855ZM1763,917L1860.114,917L1763,618.371L1763,917ZM1133,2372.196C1133,2367.12 1128.88,2363 1123.804,2363L913.284,2363C908.209,2363 904.089,2367.12 904.089,2372.196L904.089,2556.493C904.089,2561.568 908.209,2565.689 913.284,2565.689L1123.804,2565.689C1128.88,2565.689 1133,2561.568 1133,2556.493L1133,2372.196Z" style="fill:rgb(215,201,189);"/>
    <g transform="matrix(5.820812,0,0,5.820812,-1504.721529,-141.611598)">
        <path d="M626.324,360.556C627.551,360.649 627.629,360.318 629.613,361.254C631.263,362.033 631.2,362.101 632.75,363.039C638.674,366.623 640.553,368.871 642.932,372.206C643.966,373.655 650.232,382.439 649.394,393.492C648.46,405.807 643.313,411.022 641.507,413.506C640.005,415.574 634.12,420.283 633.601,420.632C608.464,437.498 573.173,430.671 566.487,429.574C561.927,428.827 562.03,428.386 557.471,427.674C553.02,426.98 539.511,422.673 534.548,421.317C533.851,421.126 509.076,413.007 501.398,409.993C500.106,409.486 499.882,408.937 498.964,409.992C498.501,410.524 498.533,410.635 498.972,411.19C499.096,411.347 499.111,411.326 501.213,412.787C504.438,415.029 504.364,415.104 506.995,418.007C507.495,418.559 511.079,422.513 512.563,425.466C516.077,432.462 516.522,439.921 516.571,440.494C517.268,448.493 515.123,457.521 514.211,460.412C513.054,464.08 513.17,465.69 509.482,464.563C481.616,456.045 477.475,439.287 476.592,436.476C474.277,429.104 475.86,419.284 475.999,418.59C476.633,415.424 476.799,413.7 479.567,415.385C482.207,416.992 485.724,420.316 486.223,420.787C493.648,427.804 495.579,432.393 496.741,434.344C498.02,436.491 498.692,438.231 498.731,438.26C498.825,438.329 500.188,438.402 500.241,438.348C500.927,437.655 499.356,433.944 499.204,433.585C493.719,420.631 487.847,414.842 486.494,413.507C485.268,412.298 478.189,405.319 468.334,401.965C464.034,400.502 455.994,399.388 453.524,399.208C444.107,398.523 415.155,395.873 397.821,416.786C391.221,424.748 386.953,438.603 394.155,451.684C394.358,452.052 396.685,456.28 396.69,456.285C396.907,456.503 397.256,456.543 397.5,456.732C397.777,456.945 397.962,457.264 398.239,457.477C398.087,474.394 398.6,474.617 398.837,475.395C399.188,476.548 399.231,476.518 399.261,476.618C399.301,476.748 399.294,476.739 399.71,478.257C396.091,477.382 396.209,477.068 393.306,474.749C392.575,474.165 384.324,468.716 378.683,456.417C375.351,449.154 373.842,441.789 375.31,429.484C376.317,421.046 382.353,408.05 392.574,399.596C401.774,391.986 409.025,388.077 430.381,382C433.62,381.078 459.807,372.37 473.665,365.85C476.818,364.366 479.383,363.606 482.629,361.749C486.44,359.569 488.843,359.571 498.822,352.983C501.905,350.948 503.741,350.09 511.602,340.587C514.017,337.669 519.544,328.236 521.627,318.528C522.51,314.416 524.129,309.367 523.128,294.54C523.074,293.73 523.011,292.808 521.228,284.574C520.269,280.146 518.561,275.778 518.396,275.606C517.303,274.463 516.533,274.934 516.638,276.513C516.759,278.332 519.72,284.734 518.285,300.476C517.377,310.427 514.851,317.546 513.821,320.598C513.638,321.143 512.475,324.591 511.023,327.216C509.528,329.92 507.524,327.888 504.207,324.807C503.588,324.231 491.981,315.037 490.256,299.529C487.944,278.754 500.739,264.555 507.586,246.537C509.047,242.695 510.565,244.21 515.59,247.368C521.757,251.243 533.098,259.104 540.022,272.762C545.568,283.704 545.145,293.285 545.048,296.486C544.873,302.276 541.527,314.552 534.592,322.575C529.156,328.865 529.1,328.976 528.775,329.631C528.644,329.895 526.891,335.037 526.264,336.465C525.786,337.551 525.462,337.867 526.536,338.391C527.254,338.741 529.028,337.187 530.473,336.451C540.85,331.172 540.795,331.106 551.284,326.064C564.316,319.8 567.386,319.442 580.535,314.602C589.867,311.168 609.07,306.376 623.605,298.685C638.787,290.651 651.696,281.691 664.014,262.21C667.421,256.823 671.746,247.966 673.449,243.487C674.471,240.798 674.485,240.764 674.377,240.541C674.264,240.311 673.104,239.891 672.932,239.991C672.788,240.074 668.958,251.566 653.436,267.442C648.512,272.478 638.809,279.914 637.449,280.306C636.065,280.706 635.498,278.729 635.439,278.522C629.735,258.633 636.729,245.13 638.45,241.475C639.782,238.644 643.706,233.023 646.823,229.826C650.402,226.155 657.318,221.152 657.755,220.887C660.873,219 668.069,214.062 682.582,209.772C690.006,207.577 691.07,207.57 692.065,209.695C692.818,211.302 698.814,228.236 699.268,239.508C699.415,243.182 700.409,255.232 693.731,269.615C689.658,278.386 681.886,284.58 680.59,285.613C677.836,287.807 669.969,292.734 660.551,294.751C654.444,296.059 654.238,296.304 651.618,298.625C651.501,298.729 646.084,303.164 644.418,304.383C638.452,308.751 638.225,308.366 628.647,313.784C619.387,319.021 600.186,324.496 589.386,328.206C585.507,329.539 585.482,329.412 581.616,330.826C577.606,332.294 577.58,332.187 573.61,333.776C569.95,335.241 569.851,334.945 565.617,336.779C561.513,338.557 561.589,338.69 557.463,340.416C556.308,340.899 556.359,340.985 543.405,347.29C541.199,348.364 535.989,351.428 533.552,352.598C532.32,353.19 515.877,362.828 508.484,366.471C507.06,367.172 502.019,370.066 499.385,371.256C495.343,373.082 494.935,373.834 488.501,376.503C482.826,378.858 481.539,379.919 475.396,382.25C472.816,383.229 472.926,383.465 470.282,384.245C465.225,385.738 471.32,386.41 471.52,386.432C471.784,386.461 478.543,387.432 481.579,388.251C484.115,388.935 502.694,393.476 510.494,396.516C511.879,397.056 533.445,404.249 538.462,405.639C544.8,407.396 573.433,418.375 599.525,415.758C600.091,415.701 607.565,414.572 612.395,413.159C623.72,409.846 628.148,404.431 629.134,403.225C636.238,394.538 633.18,385.414 629.269,380.703C628.437,379.701 628.474,379.695 628.394,379.618C628.164,379.395 627.854,379.267 627.623,379.045C627.524,378.95 627.549,378.741 627.423,378.685C626.755,378.39 626.694,378.634 626.017,378.334C625.865,363.851 626.128,361.965 626.324,360.556Z" style="fill:rgb(105,247,62);"/>
    </g>
</svg>
